<?xml version="1.0" standalone="no"?>
<!DOCTYPE svg PUBLIC "-//W3C//DTD SVG 20010904//EN"
 "http://www.w3.org/TR/2001/REC-SVG-20010904/DTD/svg10.dtd">
<svg version="1.0" xmlns="http://www.w3.org/2000/svg"
 width="286.000000pt" height="286.000000pt" viewBox="0 0 286.000000 286.000000"
 preserveAspectRatio="xMidYMid meet">
<metadata>
Created by potrace 1.11, written by Peter Selinger 2001-2013
</metadata>
<g transform="translate(0.000000,286.000000) scale(0.100000,-0.100000)"
fill="#000000" stroke="none">
<path d="M890 2009 c-114 -13 -217 -55 -264 -107 -27 -31 -32 -101 -11 -146
51 -107 264 -220 480 -253 28 -4 185 -7 350 -7 272 0 308 2 387 22 181 45 331
125 389 207 164 232 -268 374 -706 234 l-89 -29 -72 24 c-40 14 -83 27 -95 30
-106 21 -145 26 -224 29 -49 1 -115 0 -145 -4z m1046 -83 c64 -29 93 -80 73
-127 -33 -81 -167 -155 -331 -183 l-37 -7 14 34 c17 40 8 91 -24 136 -23 32
-91 91 -128 110 -13 6 -23 16 -23 20 0 5 10 11 23 14 12 3 47 12 77 19 30 8
80 15 110 17 30 1 56 3 57 5 9 9 146 -19 189 -38z m-676 20 c36 -8 78 -19 93
-25 l29 -11 -54 -37 c-120 -82 -160 -161 -124 -245 9 -19 -6 -19 -94 2 -156
36 -270 124 -270 206 0 38 56 87 122 107 67 20 213 21 298 3z m229 -96 c58
-46 71 -66 71 -112 -1 -50 -39 -88 -112 -109 -33 -9 -102 17 -132 50 -26 28
-29 72 -8 111 17 31 101 100 122 100 5 0 31 -18 59 -40z"/>
<path d="M756 1367 c-10 -17 -45 -78 -76 -134 -32 -56 -65 -112 -74 -124 -24
-35 -20 -39 29 -39 42 0 46 3 64 38 l20 38 98 -2 c54 -1 100 -2 103 -3 3 0 14
-17 24 -36 17 -32 23 -35 63 -35 23 0 43 2 43 5 0 3 -41 78 -92 165 l-92 160
-45 0 c-41 0 -48 -4 -65 -33z m98 -103 c14 -26 26 -48 26 -50 0 -2 -27 -4 -60
-4 -55 0 -75 10 -50 25 5 3 17 21 26 40 9 19 20 35 24 35 5 0 20 -21 34 -46z"/>
<path d="M1332 1385 c-47 -14 -106 -56 -121 -84 -61 -114 53 -232 223 -231
112 1 226 76 226 149 l0 27 -117 -1 -118 0 -3 -31 -3 -31 70 1 c40 1 70 -3 68
-8 -7 -22 -82 -50 -132 -49 -81 1 -155 53 -155 108 0 12 9 34 21 49 47 59 129
75 224 42 101 -35 146 -22 80 23 -74 50 -174 64 -263 36z"/>
<path d="M1977 1378 c-8 -13 -43 -72 -77 -133 -34 -60 -71 -125 -82 -142 l-20
-33 46 0 c42 0 48 3 70 39 l25 39 97 -2 97 -2 24 -37 c21 -34 27 -37 69 -37
l45 0 -25 43 c-13 23 -56 96 -94 162 l-70 120 -45 3 c-39 3 -48 -1 -60 -20z
m91 -115 l32 -53 -65 0 -64 0 31 55 c18 30 32 53 33 52 1 -1 16 -26 33 -54z"/>
<path d="M15 1379 c-4 -5 -3 -9 2 -9 4 -1 32 -23 62 -50 53 -47 55 -48 77 -32
13 9 23 19 23 22 0 3 -19 21 -41 40 -41 35 -110 51 -123 29z"/>
<path d="M360 1383 c-15 -6 -350 -290 -350 -297 0 -2 18 -4 40 -4 34 -1 49 7
104 54 35 30 66 54 70 54 4 0 37 -25 73 -55 57 -49 69 -55 104 -53 21 2 39 6
39 11 0 4 -3 7 -7 7 -5 0 -28 19 -53 41 -25 23 -60 52 -78 66 l-33 26 38 34
c21 18 59 50 85 70 26 21 47 41 48 46 0 8 -58 8 -80 0z"/>
<path d="M2420 1381 c0 -3 37 -37 81 -75 l82 -70 -40 -35 c-22 -20 -61 -54
-88 -77 l-49 -41 45 0 c37 0 52 6 94 41 91 75 81 71 117 43 18 -14 42 -34 54
-45 32 -30 56 -40 98 -40 l39 0 -24 22 c-13 11 -53 46 -89 76 -36 30 -67 57
-70 60 -3 3 -44 38 -91 77 -74 63 -91 72 -122 71 -21 -1 -37 -4 -37 -7z"/>
<path d="M2720 1351 c-45 -38 -45 -39 -26 -60 19 -20 19 -20 45 -1 14 11 46
38 71 59 l45 40 -45 1 c-38 0 -52 -6 -90 -39z"/>
<path d="M656 964 c-10 -25 -8 -29 25 -48 24 -14 28 -20 18 -32 -7 -8 -20 -12
-30 -9 -11 4 -19 2 -19 -4 0 -15 57 -14 67 2 15 24 11 38 -18 53 -32 16 -34
36 -5 40 31 4 30 14 -1 14 -19 0 -33 -6 -37 -16z"/>
<path d="M842 968 c-7 -7 -12 -28 -12 -48 0 -20 5 -41 12 -48 17 -17 63 -15
78 3 16 19 15 71 -1 91 -14 17 -61 18 -77 2z m54 -6 c22 -14 21 -77 -1 -86
-26 -10 -45 5 -45 34 0 53 17 71 46 52z"/>
<path d="M1042 920 l2 -60 33 0 c18 0 33 4 33 9 0 4 -10 8 -22 7 -21 -1 -23 4
-26 52 -4 73 -22 66 -20 -8z"/>
<path d="M1210 939 c0 -22 5 -49 10 -60 13 -24 65 -26 74 -3 9 24 7 104 -3
104 -4 0 -8 -21 -8 -46 0 -53 -14 -74 -38 -54 -9 8 -15 29 -15 56 0 24 -4 44
-10 44 -5 0 -10 -18 -10 -41z"/>
<path d="M1405 970 c3 -5 12 -10 20 -10 10 0 14 -12 13 -37 -1 -55 1 -65 11
-59 5 3 7 24 6 46 -2 32 2 44 18 55 20 14 19 15 -26 15 -30 0 -46 -4 -42 -10z"/>
<path d="M1590 920 c0 -33 4 -60 10 -60 6 0 10 27 10 60 0 33 -4 60 -10 60 -6
0 -10 -27 -10 -60z"/>
<path d="M1736 965 c-19 -20 -21 -64 -3 -89 20 -27 69 -18 85 17 27 57 -39
115 -82 72z m65 -16 c1 -5 2 -16 2 -24 0 -34 -4 -43 -19 -49 -38 -15 -63 62
-27 82 18 11 42 5 44 -9z"/>
<path d="M1939 980 c-1 -3 -2 -31 -4 -62 -2 -66 12 -80 17 -15 l3 42 24 -42
c14 -24 28 -43 32 -43 8 0 15 65 11 98 -6 39 -19 24 -17 -20 2 -46 7 -49 -47
24 -9 13 -18 21 -19 18z"/>
<path d="M2136 964 c-7 -19 8 -41 35 -49 40 -13 17 -42 -28 -36 -7 1 -13 -3
-13 -9 0 -16 56 -12 70 5 16 20 6 43 -25 57 -27 12 -29 35 -2 30 8 -1 18 2 22
8 4 6 -6 10 -23 10 -18 0 -32 -6 -36 -16z"/>
</g>
</svg>
